<svg width="32" height="32" viewBox="0 0 32 32" fill="none" xmlns="http://www.w3.org/2000/svg">
<path d="M15.9875 2.38437C8.25938 2.38125 2 8.6375 2 16.3594C2 22.4656 5.91562 27.6562 11.3687 29.5625C12.1031 29.7469 11.9906 29.225 11.9906 28.8687V26.4469C7.75 26.9437 7.57812 24.1375 7.29375 23.6687C6.71875 22.6875 5.35938 22.4375 5.76562 21.9687C6.73125 21.4719 7.71562 22.0937 8.85625 23.7781C9.68125 25 11.2906 24.7937 12.1062 24.5906C12.2844 23.8562 12.6656 23.2 13.1906 22.6906C8.79688 21.9031 6.96562 19.2219 6.96562 16.0344C6.96562 14.4875 7.475 13.0656 8.475 11.9187C7.8375 10.0281 8.53438 8.40937 8.62813 8.16874C10.4438 8.00624 12.3312 9.46875 12.4781 9.58437C13.5094 9.30625 14.6875 9.15937 16.0063 9.15937C17.3313 9.15937 18.5125 9.31249 19.5531 9.59374C19.9062 9.32499 21.6562 8.06875 23.3438 8.22187C23.4344 8.46249 24.1156 10.0437 23.5156 11.9094C24.5281 13.0594 25.0438 14.4937 25.0438 16.0437C25.0438 19.2375 23.2 21.9219 18.7938 22.6969C19.1712 23.068 19.4708 23.5107 19.6753 23.9989C19.8797 24.4872 19.9848 25.0113 19.9844 25.5406V29.0562C20.0094 29.3375 19.9844 29.6156 20.4531 29.6156C25.9875 27.75 29.9719 22.5219 29.9719 16.3625C29.9719 8.63749 23.7094 2.38437 15.9875 2.38437Z" fill="black"/>
</svg>
